<svg height="512pt" viewBox="0 -25 512 512" width="512pt" xmlns="http://www.w3.org/2000/svg"><path d="m291.828125 311.707031 4.671875 134.5625h45.292969l15.972656-134.5625zm0 0" fill="#9bb9c3"/><path d="m102.480469 311.707031 4.671875 134.5625h56.59375l4.671875-134.5625zm0 0" fill="#b4d2d7"/><path d="m387.183594 286.625c-3.773438 2.929688-6.632813 6.917969-8.101563 11.464844-4.066406 12.679687-12.042969 23.601562-22.507812 31.363281-10.464844 7.75-23.425781 12.339844-37.453125 12.339844-7.832032 0-14.257813 6.210937-14.523438 14.035156-3.152344 89.503906-2.570312 72.917969-3.179687 90.445313h-56.503907l-1.90625-53.574219c-.289062-8.324219-7.539062-14.503907-15.839843-13.839844-7.203125.578125-14.390625-.65625-20.917969-3.480469-4.886719-2.109375-9.394531-5.109375-13.269531-8.914062-5.367188-5.273438-13.902344-5.382813-19.695313-.589844-11.476562 9.515625-26.90625 12.953125-41.246094 9.339844-8.976562-2.261719-17.726562 4.355468-18.054687 13.597656l-1.914063 57.460938h-56.371093c-4.875-68.679688-7.679688-100.59375-7.027344-127.121094.109375-4.285156-2.777344-8.015625-6.90625-9.140625-31.453125-8.503907-43.773437-46.742188-25.183594-72.097657 4.429688-6.039062 5.855469-13.839843 3.539063-20.957031-10.378906-31.957031 18.167968-63.15625 49.214844-60.117187 10.890624 1.074218 20.925781-5.75 24.699218-16.023438 9.089844-24.792968 39.277344-38.03125 64-25.945312 7.222656 3.53125 15.789063 2.980468 22.613282-1.273438 7.832031-4.875 16.765624-7.152344 25.601562-6.945312 11.0625.273437 21.996094 4.445312 30.472656 12.289062 6.070313 5.621094 14.503906 7.875 22.519532 5.804688 18.074218-4.671875 37.339843 2.171875 48.539062 16.734375 5.628906 7.3125 17.378906 10.933593 26.160156 8.109375 32.320313-10.382813 68.355469 19.828125 59.472656 55.085937-1.671874 6.617188-.121093 13.566407 3.710938 19.203125 13.566406 19.960938 9.464844 47.691406-9.941406 62.746094zm0 0" fill="#e1ebf0"/><path d="m387.183594 286.625c-3.773438 2.929688-6.632813 6.917969-8.101563 11.464844-4.066406 12.679687-12.042969 23.601562-22.507812 31.363281-10.464844 7.75-23.425781 12.339844-37.453125 12.339844-7.832032 0-14.257813 6.210937-14.523438 14.035156-3.152344 89.503906-2.570312 72.917969-3.179687 90.445313h-56.503907l-1.90625-53.574219c-.289062-8.324219-7.539062-14.503907-15.839843-13.839844-7.203125.578125-14.390625-.65625-20.917969-3.480469v-268.726562c11.0625.273437 21.996094 4.445312 30.472656 12.289062 6.070313 5.621094 14.503906 7.875 22.519532 5.804688 18.074218-4.671875 37.339843 2.171875 48.539062 16.734375 5.628906 7.3125 17.378906 10.933593 26.160156 8.109375 32.320313-10.382813 68.355469 19.828125 59.472656 55.085937-1.671874 6.617188-.121093 13.566407 3.710938 19.203125 13.566406 19.960938 9.464844 47.691406-9.941406 62.746094zm0 0" fill="#cde1e6"/><path d="m268.523438 322.15625c-16.734376 15.648438-42.191407 16.382812-59.746094 2.644531-.847656.273438-1.683594.53125-2.527344.765625-32.824219 9.035156-65.828125-15.453125-66.214844-49.925781-.09375-8.445313 6.679688-15.371094 15.125-15.464844 8.433594-.109375 15.378906 6.683594 15.472656 15.128907.132813 11.636718 9.425782 21.203124 21.253907 21.5-1.304688-7.101563-.96875-14.515626 1.195312-21.632813 1.84375-6.109375 7.179688-10.210937 13.167969-10.792969 1.9375-.183594 3.933594-.007812 5.914062.59375 8.085938 2.445313 12.648438 10.992188 10.199219 19.082032-4.550781 14.992187 13.777344 26.496093 25.261719 15.757812 6.171875-5.773438 15.851562-5.445312 21.625.722656 5.773438 6.171875 5.445312 15.859375-.726562 21.621094zm0 0" fill="#b4d2d7"/><path d="m268.523438 322.15625c-16.734376 15.648438-42.191407 16.382812-59.746094 2.644531-.847656.273438-1.683594.53125-2.527344.765625v-61.1875c1.9375-.183594 3.933594-.007812 5.914062.59375 8.085938 2.445313 12.648438 10.992188 10.199219 19.082032-4.550781 14.992187 13.777344 26.496093 25.261719 15.757812 6.171875-5.773438 15.851562-5.445312 21.625.722656 5.773438 6.171875 5.445312 15.859375-.726562 21.621094zm0 0" fill="#9bb9c3"/><path d="m321.53125 80.828125c-17.386719-13.800781-42.671875-10.890625-56.46875 6.5l-38.722656 48.796875c-3.5 4.414062-2.761719 10.828125 1.652344 14.332031l11.601562 9.203125c17.070312 13.546875 41.890625 10.6875 55.433594-6.382812l45.519531-57.363282zm0 0" fill="#ffd87c"/><path d="m497.824219 136.125-38.71875-48.796875c-13.800781-17.390625-39.082031-20.300781-56.472657-6.5l-19.015624 15.085937 45.519531 57.363282c13.546875 17.074218 38.363281 19.929687 55.4375 6.386718l11.601562-9.207031c4.414063-3.5 5.152344-9.917969 1.648438-14.332031zm0 0" fill="#ffc43b"/><path d="m437.914062 112.992188-4.007812 51.964843c-2.316406 30.117188-24.0625 54.394531-52.375 60.921875-4.925781 1.140625-10.046875 1.742188-15.296875 1.742188-5.253906 0-10.375-.601563-15.300781-1.742188-28.324219-6.519531-50.066406-30.804687-52.382813-60.921875l-4.007812-51.964843c-2.734375-35.441407 25.292969-65.703126 60.839843-65.703126h21.691407c35.542969 0 63.570312 30.261719 60.839843 65.703126zm0 0" fill="#ffebbe"/><path d="m437.914062 112.992188-4.007812 51.964843c-2.316406 30.117188-24.0625 54.394531-52.375 60.921875-4.925781 1.140625-10.046875 1.742188-15.296875 1.742188v-180.332032h10.839844c35.542969 0 63.570312 30.261719 60.839843 65.703126zm0 0" fill="#ffd87c"/><path d="m381.53125 170.097656v55.78125c-4.925781 1.140625-10.046875 1.742188-15.296875 1.742188-5.253906 0-10.375-.601563-15.300781-1.742188v-55.78125zm0 0" fill="#ffa433"/><path d="m381.53125 170.097656v55.78125c-4.925781 1.140625-10.046875 1.742188-15.296875 1.742188v-57.523438zm0 0" fill="#ff852b"/><path d="m395.789062 163.613281c0 8.441407-6.84375 15.296875-15.296874 15.296875h-28.519532c-8.453125 0-15.296875-6.855468-15.296875-15.296875 0-8.457031 6.84375-15.300781 15.296875-15.300781h28.519532c8.453124 0 15.296874 6.84375 15.296874 15.300781zm0 0" fill="#bc5f19"/><path d="m395.789062 163.613281c0 8.441407-6.84375 15.296875-15.296874 15.296875h-14.257813v-30.597656h14.257813c8.453124 0 15.296874 6.84375 15.296874 15.300781zm0 0" fill="#9e5015"/><path d="m375.101562 47.285156c0 26.117188-21.171874 47.289063-47.285156 47.289063-26.117187 0-47.289062-21.171875-47.289062-47.289063 0-26.113281 21.171875-47.285156 47.289062-47.285156 26.113282 0 47.285156 21.171875 47.285156 47.285156zm0 0" fill="#e1ebf0"/><path d="m451.9375 47.285156c0 26.117188-21.171875 47.289063-47.289062 47.289063-26.113282 0-47.285157-21.171875-47.285157-47.289063 0-26.113281 21.171875-47.285156 47.285157-47.285156 26.117187 0 47.289062 21.171875 47.289062 47.285156zm0 0" fill="#cde1e6"/><path d="m480.984375 350.839844v95.433594h-30.597656v-95.433594c0-8.453125 6.84375-15.296875 15.296875-15.296875 8.445312 0 15.300781 6.84375 15.300781 15.296875zm0 0" fill="#a5e887"/><path d="m442.238281 446.265625v.007813h-30.597656v-.007813c0-44.398437-16.789063-57.972656-16.953125-58.085937-7.109375-4.578126-9.15625-14.042969-4.589844-21.144532 4.582032-7.105468 14.046875-9.15625 21.15625-4.578125 3.171875 2.039063 30.984375 21.746094 30.984375 83.808594zm0 0" fill="#a5e887"/><path d="m512 446.273438c0 8.445312-6.84375 15.296874-15.296875 15.296874h-481.40625c-8.441406 0-15.296875-6.851562-15.296875-15.296874 0-8.457032 6.855469-15.300782 15.296875-15.300782h481.40625c8.453125 0 15.296875 6.84375 15.296875 15.300782zm0 0" fill="#86c983"/><path d="m512 446.273438c0 8.445312-6.84375 15.296874-15.296875 15.296874h-242.761719v-30.597656h242.761719c8.453125 0 15.296875 6.84375 15.296875 15.300782zm0 0" fill="#58b454"/></svg>